<?xml version="1.0" standalone="no"?>
<!DOCTYPE svg PUBLIC "-//W3C//DTD SVG 20010904//EN"
 "http://www.w3.org/TR/2001/REC-SVG-20010904/DTD/svg10.dtd">
<svg version="1.0" xmlns="http://www.w3.org/2000/svg"
 width="350.000000pt" height="350.000000pt" viewBox="0 0 350.000000 350.000000"
 preserveAspectRatio="xMidYMid meet">
<metadata>
Created by potrace 1.16, written by Peter Selinger 2001-2019
</metadata>
<g transform="translate(0.000000,350.000000) scale(0.100000,-0.100000)"
fill="#000000" stroke="none">
<path d="M1630 3119 c-94 -8 -235 -35 -262 -50 -23 -12 -23 -56 0 -67 11 -6
56 -1 132 14 320 66 673 -1 950 -180 l71 -46 -44 -44 c-52 -50 -71 -100 -65
-165 16 -169 232 -231 342 -98 l34 41 47 -73 c95 -147 160 -317 190 -500 14
-82 16 -137 12 -255 -8 -200 -37 -321 -125 -508 -38 -82 -43 -100 -32 -113 27
-33 62 -14 95 50 237 452 187 1036 -124 1448 -30 40 -60 86 -67 102 -17 40
-59 82 -109 107 -22 12 -58 36 -80 53 -135 111 -333 206 -520 251 -86 20 -298
47 -345 43 -8 -1 -53 -5 -100 -10z m1079 -546 c-38 -100 -166 -110 -205 -16
-28 66 3 132 72 153 27 7 34 3 87 -50 54 -55 57 -60 46 -87z"/>
<path d="M964 2878 c-49 -34 -134 -107 -189 -162 -378 -380 -497 -925 -315
-1440 104 -293 333 -565 609 -720 294 -166 655 -222 976 -149 90 20 105 28
105 58 0 34 -32 50 -73 35 -62 -21 -214 -40 -328 -40 -243 0 -479 67 -685 195
-101 63 -101 64 -68 125 22 40 40 57 89 85 96 53 96 73 1 127 -53 31 -67 46
-94 96 -50 93 -74 93 -128 -4 -30 -53 -45 -69 -85 -90 -28 -13 -55 -22 -60
-18 -6 3 -30 36 -54 73 -148 229 -212 470 -202 756 8 231 63 412 190 625 49
82 87 130 182 225 70 70 149 140 190 165 73 46 85 57 85 77 0 15 -28 43 -44
43 -7 0 -53 -28 -102 -62z"/>
<path d="M883 2560 c-42 -25 -62 -84 -42 -125 35 -71 116 -90 169 -40 55 53
46 136 -20 170 -39 20 -68 19 -107 -5z"/>
<path d="M1612 2569 c-179 -31 -367 -136 -481 -268 -292 -337 -277 -825 36
-1138 401 -402 1087 -282 1329 232 62 132 79 207 78 350 0 134 -13 206 -56
314 -95 242 -304 425 -559 492 -95 24 -262 34 -347 18z m98 -278 l0 -189 -77
-7 c-43 -3 -95 -8 -117 -12 l-39 -5 8 38 c21 115 89 258 152 322 72 71 73 69
73 -147z m127 172 c14 -10 38 -34 53 -55 l28 -38 -20 -40 c-14 -29 -18 -50
-14 -75 8 -41 65 -105 94 -105 22 0 42 -26 42 -55 0 -14 -8 -16 -47 -11 -27 3
-78 8 -115 12 l-68 6 0 189 c0 124 4 189 10 189 6 0 22 -8 37 -17z m-317 -35
c-48 -73 -98 -204 -134 -352 -1 -5 -42 -20 -92 -33 -49 -13 -129 -43 -177 -67
l-88 -44 7 31 c27 125 151 299 279 393 51 37 184 103 208 104 18 0 18 -2 -3
-32z m569 -16 c151 -76 286 -224 351 -385 16 -41 30 -79 30 -84 0 -5 -36 9
-79 30 -44 22 -123 52 -177 67 l-98 27 -14 53 c-12 50 -12 54 8 75 65 70 10
205 -83 205 -22 0 -43 17 -62 49 -12 21 36 7 124 -37z m-379 -447 c0 -41 -3
-45 -35 -61 -127 -60 -127 -248 0 -308 35 -17 36 -19 33 -64 -3 -43 -5 -47
-28 -45 -14 1 -64 5 -113 8 -53 4 -93 12 -101 21 -30 30 -30 444 0 474 9 9
222 29 237 22 4 -2 7 -23 7 -47z m268 36 c30 -4 57 -14 62 -21 26 -42 20 -444
-7 -471 -5 -5 -62 -12 -126 -16 l-117 -6 0 47 c0 35 4 48 18 53 37 13 73 46
92 83 47 91 7 205 -82 239 -25 9 -28 16 -28 56 l0 45 68 -1 c37 0 91 -4 120
-8z m-613 -249 l0 -229 -80 25 c-145 44 -253 111 -272 170 -30 86 61 166 267
233 47 15 85 28 85 28 0 1 0 -102 0 -227z m860 197 c190 -60 294 -149 264
-226 -24 -64 -108 -120 -253 -169 -110 -38 -101 -56 -101 200 0 144 4 222 10
221 6 -2 42 -13 80 -26z m-414 -138 c39 -40 39 -82 0 -122 -20 -20 -39 -29
-61 -29 -38 0 -90 47 -90 82 0 34 22 71 50 85 40 20 69 15 101 -16z m-525
-351 l98 -27 13 -49 c12 -46 11 -51 -12 -85 -57 -81 -4 -199 88 -199 17 0 33
-10 46 -29 12 -16 21 -32 21 -34 0 -11 -139 52 -196 88 -75 48 -182 158 -228
234 -32 52 -86 178 -86 199 0 5 36 -10 79 -31 44 -22 123 -52 177 -67z m1165
41 c-54 -149 -157 -284 -279 -365 -73 -48 -179 -98 -198 -94 -8 2 1 26 26 67
34 56 78 176 107 290 8 33 11 35 98 58 50 13 128 43 175 66 47 24 87 42 89 40
2 -1 -6 -29 -18 -62z m-818 -96 l77 -7 0 -189 c0 -201 -1 -206 -47 -174 -12 8
-35 32 -52 53 l-30 39 21 41 c15 32 18 52 13 79 -8 45 -63 103 -98 103 -17 0
-26 7 -31 23 -12 44 -8 49 32 43 20 -3 72 -8 115 -11z m387 -2 c0 -30 -65
-208 -94 -257 -34 -59 -98 -126 -119 -126 -15 0 -17 20 -17 189 l0 189 78 7
c42 3 86 7 97 9 46 7 55 6 55 -11z"/>
<path d="M2407 1067 c-37 -30 -50 -80 -33 -121 43 -102 188 -80 203 31 5 39 2
46 -30 78 -43 43 -96 48 -140 12z"/>
<path d="M2495 694 c-27 -19 -78 -51 -112 -70 -49 -28 -63 -41 -63 -59 0 -30
23 -48 52 -39 31 9 152 83 194 117 38 31 42 48 18 71 -22 22 -32 20 -89 -20z"/>
</g>
</svg>
